<?xml version="1.0" encoding="UTF-8" standalone="no"?>
<!DOCTYPE svg PUBLIC "-//W3C//DTD SVG 1.1//EN"
 "http://www.w3.org/Graphics/SVG/1.1/DTD/svg11.dtd">
<!-- Generated by graphviz version 2.43.0 (0)
 -->
<!-- Title: cfg Pages: 1 -->
<svg width="432pt" height="3176pt"
 viewBox="0.00 0.00 431.60 3176.00" xmlns="http://www.w3.org/2000/svg" xmlns:xlink="http://www.w3.org/1999/xlink">
<g id="graph0" class="graph" transform="scale(1 1) rotate(0) translate(4 3172)">
<title>cfg</title>
<polygon fill="white" stroke="transparent" points="-4,4 -4,-3172 427.6,-3172 427.6,4 -4,4"/>
<!-- 686 -->
<g id="node1" class="node">
<title>686</title>
<ellipse fill="none" stroke="black" cx="384.6" cy="-3150" rx="28.7" ry="18"/>
<text text-anchor="middle" x="384.6" y="-3146.3" font-family="Times,serif" font-size="14.00">686</text>
</g>
<!-- 688 -->
<g id="node2" class="node">
<title>688</title>
<ellipse fill="none" stroke="black" cx="356.6" cy="-3063" rx="28.7" ry="18"/>
<text text-anchor="middle" x="356.6" y="-3059.3" font-family="Times,serif" font-size="14.00">688</text>
</g>
<!-- 686&#45;&gt;688 -->
<g id="edge1" class="edge">
<title>686&#45;&gt;688</title>
<path fill="none" stroke="black" d="M379.07,-3132.21C375.15,-3120.33 369.83,-3104.17 365.35,-3090.56"/>
<polygon fill="black" stroke="black" points="368.57,-3089.16 362.12,-3080.76 361.92,-3091.35 368.57,-3089.16"/>
<text text-anchor="middle" x="376.6" y="-3102.8" font-family="Times,serif" font-size="14.00">6</text>
</g>
<!-- 689 -->
<g id="node3" class="node">
<title>689</title>
<ellipse fill="none" stroke="black" cx="356.6" cy="-2976" rx="28.7" ry="18"/>
<text text-anchor="middle" x="356.6" y="-2972.3" font-family="Times,serif" font-size="14.00">689</text>
</g>
<!-- 688&#45;&gt;689 -->
<g id="edge2" class="edge">
<title>688&#45;&gt;689</title>
<path fill="none" stroke="black" d="M356.6,-3044.8C356.6,-3033.16 356.6,-3017.55 356.6,-3004.24"/>
<polygon fill="black" stroke="black" points="360.1,-3004.18 356.6,-2994.18 353.1,-3004.18 360.1,-3004.18"/>
<text text-anchor="middle" x="361.6" y="-3015.8" font-family="Times,serif" font-size="14.00">6</text>
</g>
<!-- 690 -->
<g id="node4" class="node">
<title>690</title>
<ellipse fill="none" stroke="black" cx="356.6" cy="-2889" rx="28.7" ry="18"/>
<text text-anchor="middle" x="356.6" y="-2885.3" font-family="Times,serif" font-size="14.00">690</text>
</g>
<!-- 689&#45;&gt;690 -->
<g id="edge3" class="edge">
<title>689&#45;&gt;690</title>
<path fill="none" stroke="black" d="M356.6,-2957.8C356.6,-2946.16 356.6,-2930.55 356.6,-2917.24"/>
<polygon fill="black" stroke="black" points="360.1,-2917.18 356.6,-2907.18 353.1,-2917.18 360.1,-2917.18"/>
<text text-anchor="middle" x="361.6" y="-2928.8" font-family="Times,serif" font-size="14.00">5</text>
</g>
<!-- 691 -->
<g id="node5" class="node">
<title>691</title>
<ellipse fill="none" stroke="black" cx="281.6" cy="-2889" rx="28.7" ry="18"/>
<text text-anchor="middle" x="281.6" y="-2885.3" font-family="Times,serif" font-size="14.00">691</text>
</g>
<!-- 689&#45;&gt;691 -->
<g id="edge4" class="edge">
<title>689&#45;&gt;691</title>
<path fill="none" stroke="black" d="M343.19,-2959.8C331.67,-2946.75 314.89,-2927.74 301.76,-2912.85"/>
<polygon fill="black" stroke="black" points="304.13,-2910.25 294.89,-2905.06 298.88,-2914.88 304.13,-2910.25"/>
<text text-anchor="middle" x="327.6" y="-2928.8" font-family="Times,serif" font-size="14.00">1</text>
</g>
<!-- 692 -->
<g id="node6" class="node">
<title>692</title>
<ellipse fill="none" stroke="black" cx="356.6" cy="-2802" rx="28.7" ry="18"/>
<text text-anchor="middle" x="356.6" y="-2798.3" font-family="Times,serif" font-size="14.00">692</text>
</g>
<!-- 690&#45;&gt;692 -->
<g id="edge5" class="edge">
<title>690&#45;&gt;692</title>
<path fill="none" stroke="black" d="M356.6,-2870.8C356.6,-2859.16 356.6,-2843.55 356.6,-2830.24"/>
<polygon fill="black" stroke="black" points="360.1,-2830.18 356.6,-2820.18 353.1,-2830.18 360.1,-2830.18"/>
<text text-anchor="middle" x="361.6" y="-2841.8" font-family="Times,serif" font-size="14.00">5</text>
</g>
<!-- 693 -->
<g id="node8" class="node">
<title>693</title>
<ellipse fill="none" stroke="black" cx="281.6" cy="-2802" rx="28.7" ry="18"/>
<text text-anchor="middle" x="281.6" y="-2798.3" font-family="Times,serif" font-size="14.00">693</text>
</g>
<!-- 691&#45;&gt;693 -->
<g id="edge8" class="edge">
<title>691&#45;&gt;693</title>
<path fill="none" stroke="black" d="M281.6,-2870.8C281.6,-2859.16 281.6,-2843.55 281.6,-2830.24"/>
<polygon fill="black" stroke="black" points="285.1,-2830.18 281.6,-2820.18 278.1,-2830.18 285.1,-2830.18"/>
<text text-anchor="middle" x="286.6" y="-2841.8" font-family="Times,serif" font-size="14.00">1</text>
</g>
<!-- 685 -->
<g id="node7" class="node">
<title>685</title>
<ellipse fill="none" stroke="black" cx="393.6" cy="-2715" rx="28.7" ry="18"/>
<text text-anchor="middle" x="393.6" y="-2711.3" font-family="Times,serif" font-size="14.00">685</text>
</g>
<!-- 692&#45;&gt;685 -->
<g id="edge6" class="edge">
<title>692&#45;&gt;685</title>
<path fill="none" stroke="black" d="M363.91,-2784.21C369.16,-2772.14 376.34,-2755.64 382.33,-2741.89"/>
<polygon fill="black" stroke="black" points="385.65,-2743.04 386.43,-2732.47 379.23,-2740.24 385.65,-2743.04"/>
<text text-anchor="middle" x="381.6" y="-2754.8" font-family="Times,serif" font-size="14.00">5</text>
</g>
<!-- 685&#45;&gt;686 -->
<g id="edge7" class="edge">
<title>685&#45;&gt;686</title>
<path fill="none" stroke="black" d="M399.93,-2732.66C405.78,-2749.6 413.6,-2776.74 413.6,-2801 413.6,-3064 413.6,-3064 413.6,-3064 413.6,-3084.66 405.83,-3106.7 398.33,-3123.16"/>
<polygon fill="black" stroke="black" points="394.96,-3122.1 393.77,-3132.63 401.27,-3125.14 394.96,-3122.1"/>
<text text-anchor="middle" x="418.6" y="-2928.8" font-family="Times,serif" font-size="14.00">5</text>
</g>
<!-- 698 -->
<g id="node9" class="node">
<title>698</title>
<ellipse fill="none" stroke="black" cx="281.6" cy="-2715" rx="28.7" ry="18"/>
<text text-anchor="middle" x="281.6" y="-2711.3" font-family="Times,serif" font-size="14.00">698</text>
</g>
<!-- 693&#45;&gt;698 -->
<g id="edge9" class="edge">
<title>693&#45;&gt;698</title>
<path fill="none" stroke="black" d="M281.6,-2783.8C281.6,-2772.16 281.6,-2756.55 281.6,-2743.24"/>
<polygon fill="black" stroke="black" points="285.1,-2743.18 281.6,-2733.18 278.1,-2743.18 285.1,-2743.18"/>
<text text-anchor="middle" x="286.6" y="-2754.8" font-family="Times,serif" font-size="14.00">1</text>
</g>
<!-- 105 -->
<g id="node10" class="node">
<title>105</title>
<ellipse fill="none" stroke="black" cx="281.6" cy="-2628" rx="28.7" ry="18"/>
<text text-anchor="middle" x="281.6" y="-2624.3" font-family="Times,serif" font-size="14.00">105</text>
</g>
<!-- 698&#45;&gt;105 -->
<g id="edge10" class="edge">
<title>698&#45;&gt;105</title>
<path fill="none" stroke="black" d="M281.6,-2696.8C281.6,-2685.16 281.6,-2669.55 281.6,-2656.24"/>
<polygon fill="black" stroke="black" points="285.1,-2656.18 281.6,-2646.18 278.1,-2656.18 285.1,-2656.18"/>
<text text-anchor="middle" x="286.6" y="-2667.8" font-family="Times,serif" font-size="14.00">1</text>
</g>
<!-- 106 -->
<g id="node11" class="node">
<title>106</title>
<ellipse fill="none" stroke="black" cx="189.6" cy="-2541" rx="28.7" ry="18"/>
<text text-anchor="middle" x="189.6" y="-2537.3" font-family="Times,serif" font-size="14.00">106</text>
</g>
<!-- 105&#45;&gt;106 -->
<g id="edge11" class="edge">
<title>105&#45;&gt;106</title>
<path fill="none" stroke="black" d="M265.99,-2612.58C251.36,-2599.07 229.32,-2578.7 212.66,-2563.31"/>
<polygon fill="black" stroke="black" points="214.69,-2560.42 204.97,-2556.21 209.94,-2565.56 214.69,-2560.42"/>
<text text-anchor="middle" x="245.6" y="-2580.8" font-family="Times,serif" font-size="14.00">2</text>
</g>
<!-- 107 -->
<g id="node12" class="node">
<title>107</title>
<ellipse fill="none" stroke="black" cx="109.6" cy="-2454" rx="28.7" ry="18"/>
<text text-anchor="middle" x="109.6" y="-2450.3" font-family="Times,serif" font-size="14.00">107</text>
</g>
<!-- 106&#45;&gt;107 -->
<g id="edge12" class="edge">
<title>106&#45;&gt;107</title>
<path fill="none" stroke="black" d="M167.7,-2529.26C157.04,-2523.23 144.61,-2514.92 135.6,-2505 129.26,-2498.03 124.01,-2489.22 119.93,-2480.95"/>
<polygon fill="black" stroke="black" points="123.01,-2479.28 115.68,-2471.63 116.64,-2482.18 123.01,-2479.28"/>
<text text-anchor="middle" x="145.1" y="-2493.8" font-family="Times,serif" font-size="14.00">36</text>
</g>
<!-- 108 -->
<g id="node13" class="node">
<title>108</title>
<ellipse fill="none" stroke="black" cx="228.6" cy="-2454" rx="28.7" ry="18"/>
<text text-anchor="middle" x="228.6" y="-2450.3" font-family="Times,serif" font-size="14.00">108</text>
</g>
<!-- 106&#45;&gt;108 -->
<g id="edge13" class="edge">
<title>106&#45;&gt;108</title>
<path fill="none" stroke="black" d="M197.12,-2523.61C202.69,-2511.46 210.4,-2494.66 216.79,-2480.73"/>
<polygon fill="black" stroke="black" points="219.98,-2482.18 220.97,-2471.63 213.62,-2479.26 219.98,-2482.18"/>
<text text-anchor="middle" x="215.6" y="-2493.8" font-family="Times,serif" font-size="14.00">2</text>
</g>
<!-- 109 -->
<g id="node14" class="node">
<title>109</title>
<ellipse fill="none" stroke="black" cx="103.6" cy="-2367" rx="28.7" ry="18"/>
<text text-anchor="middle" x="103.6" y="-2363.3" font-family="Times,serif" font-size="14.00">109</text>
</g>
<!-- 107&#45;&gt;109 -->
<g id="edge14" class="edge">
<title>107&#45;&gt;109</title>
<path fill="none" stroke="black" d="M108.38,-2435.8C107.56,-2424.16 106.46,-2408.55 105.52,-2395.24"/>
<polygon fill="black" stroke="black" points="109.01,-2394.9 104.81,-2385.18 102.02,-2395.4 109.01,-2394.9"/>
<text text-anchor="middle" x="117.1" y="-2406.8" font-family="Times,serif" font-size="14.00">36</text>
</g>
<!-- 115 -->
<g id="node20" class="node">
<title>115</title>
<ellipse fill="none" stroke="black" cx="234.6" cy="-2367" rx="28.7" ry="18"/>
<text text-anchor="middle" x="234.6" y="-2363.3" font-family="Times,serif" font-size="14.00">115</text>
</g>
<!-- 108&#45;&gt;115 -->
<g id="edge23" class="edge">
<title>108&#45;&gt;115</title>
<path fill="none" stroke="black" d="M229.81,-2435.8C230.63,-2424.16 231.74,-2408.55 232.67,-2395.24"/>
<polygon fill="black" stroke="black" points="236.17,-2395.4 233.39,-2385.18 229.19,-2394.9 236.17,-2395.4"/>
<text text-anchor="middle" x="236.6" y="-2406.8" font-family="Times,serif" font-size="14.00">2</text>
</g>
<!-- 111 -->
<g id="node15" class="node">
<title>111</title>
<ellipse fill="none" stroke="black" cx="28.6" cy="-2280" rx="28.7" ry="18"/>
<text text-anchor="middle" x="28.6" y="-2276.3" font-family="Times,serif" font-size="14.00">111</text>
</g>
<!-- 109&#45;&gt;111 -->
<g id="edge15" class="edge">
<title>109&#45;&gt;111</title>
<path fill="none" stroke="black" d="M90.19,-2350.8C78.67,-2337.75 61.89,-2318.74 48.76,-2303.85"/>
<polygon fill="black" stroke="black" points="51.13,-2301.25 41.89,-2296.06 45.88,-2305.88 51.13,-2301.25"/>
<text text-anchor="middle" x="80.1" y="-2319.8" font-family="Times,serif" font-size="14.00">34</text>
</g>
<!-- 110 -->
<g id="node16" class="node">
<title>110</title>
<ellipse fill="none" stroke="black" cx="103.6" cy="-2280" rx="28.7" ry="18"/>
<text text-anchor="middle" x="103.6" y="-2276.3" font-family="Times,serif" font-size="14.00">110</text>
</g>
<!-- 109&#45;&gt;110 -->
<g id="edge16" class="edge">
<title>109&#45;&gt;110</title>
<path fill="none" stroke="black" d="M103.6,-2348.8C103.6,-2337.16 103.6,-2321.55 103.6,-2308.24"/>
<polygon fill="black" stroke="black" points="107.1,-2308.18 103.6,-2298.18 100.1,-2308.18 107.1,-2308.18"/>
<text text-anchor="middle" x="108.6" y="-2319.8" font-family="Times,serif" font-size="14.00">2</text>
</g>
<!-- 112 -->
<g id="node17" class="node">
<title>112</title>
<ellipse fill="none" stroke="black" cx="51.6" cy="-2193" rx="28.7" ry="18"/>
<text text-anchor="middle" x="51.6" y="-2189.3" font-family="Times,serif" font-size="14.00">112</text>
</g>
<!-- 111&#45;&gt;112 -->
<g id="edge17" class="edge">
<title>111&#45;&gt;112</title>
<path fill="none" stroke="black" d="M33.14,-2262.21C36.33,-2250.41 40.67,-2234.38 44.34,-2220.82"/>
<polygon fill="black" stroke="black" points="47.75,-2221.62 46.98,-2211.05 40.99,-2219.79 47.75,-2221.62"/>
<text text-anchor="middle" x="51.1" y="-2232.8" font-family="Times,serif" font-size="14.00">34</text>
</g>
<!-- 110&#45;&gt;112 -->
<g id="edge21" class="edge">
<title>110&#45;&gt;112</title>
<path fill="none" stroke="black" d="M93.82,-2263.01C86.24,-2250.63 75.6,-2233.23 66.9,-2219.01"/>
<polygon fill="black" stroke="black" points="69.72,-2216.91 61.51,-2210.21 63.74,-2220.56 69.72,-2216.91"/>
<text text-anchor="middle" x="86.6" y="-2232.8" font-family="Times,serif" font-size="14.00">2</text>
</g>
<!-- 114 -->
<g id="node18" class="node">
<title>114</title>
<ellipse fill="none" stroke="black" cx="111.6" cy="-2019" rx="28.7" ry="18"/>
<text text-anchor="middle" x="111.6" y="-2015.3" font-family="Times,serif" font-size="14.00">114</text>
</g>
<!-- 112&#45;&gt;114 -->
<g id="edge18" class="edge">
<title>112&#45;&gt;114</title>
<path fill="none" stroke="black" d="M48.74,-2174.77C45.97,-2153.58 43.62,-2116.87 54.6,-2088 61.44,-2069.99 75.2,-2053.35 87.48,-2041.04"/>
<polygon fill="black" stroke="black" points="90.07,-2043.41 94.87,-2033.96 85.23,-2038.36 90.07,-2043.41"/>
<text text-anchor="middle" x="64.1" y="-2102.3" font-family="Times,serif" font-size="14.00">34</text>
</g>
<!-- 113 -->
<g id="node19" class="node">
<title>113</title>
<ellipse fill="none" stroke="black" cx="111.6" cy="-2106" rx="28.7" ry="18"/>
<text text-anchor="middle" x="111.6" y="-2102.3" font-family="Times,serif" font-size="14.00">113</text>
</g>
<!-- 112&#45;&gt;113 -->
<g id="edge19" class="edge">
<title>112&#45;&gt;113</title>
<path fill="none" stroke="black" d="M62.88,-2176.01C71.82,-2163.35 84.45,-2145.45 94.61,-2131.06"/>
<polygon fill="black" stroke="black" points="97.66,-2132.82 100.57,-2122.63 91.94,-2128.78 97.66,-2132.82"/>
<text text-anchor="middle" x="90.6" y="-2145.8" font-family="Times,serif" font-size="14.00">2</text>
</g>
<!-- 114&#45;&gt;106 -->
<g id="edge20" class="edge">
<title>114&#45;&gt;106</title>
<path fill="none" stroke="black" d="M128.39,-2033.75C145.2,-2049.17 168.6,-2075.86 168.6,-2105 168.6,-2455 168.6,-2455 168.6,-2455 168.6,-2475.14 174.22,-2497.2 179.65,-2513.8"/>
<polygon fill="black" stroke="black" points="176.38,-2515.06 182.95,-2523.37 183,-2512.77 176.38,-2515.06"/>
<text text-anchor="middle" x="178.1" y="-2276.3" font-family="Times,serif" font-size="14.00">36</text>
</g>
<!-- 113&#45;&gt;114 -->
<g id="edge22" class="edge">
<title>113&#45;&gt;114</title>
<path fill="none" stroke="black" d="M111.6,-2087.8C111.6,-2076.16 111.6,-2060.55 111.6,-2047.24"/>
<polygon fill="black" stroke="black" points="115.1,-2047.18 111.6,-2037.18 108.1,-2047.18 115.1,-2047.18"/>
<text text-anchor="middle" x="116.6" y="-2058.8" font-family="Times,serif" font-size="14.00">2</text>
</g>
<!-- 699 -->
<g id="node21" class="node">
<title>699</title>
<ellipse fill="none" stroke="black" cx="234.6" cy="-2280" rx="28.7" ry="18"/>
<text text-anchor="middle" x="234.6" y="-2276.3" font-family="Times,serif" font-size="14.00">699</text>
</g>
<!-- 115&#45;&gt;699 -->
<g id="edge24" class="edge">
<title>115&#45;&gt;699</title>
<path fill="none" stroke="black" d="M234.6,-2348.8C234.6,-2337.16 234.6,-2321.55 234.6,-2308.24"/>
<polygon fill="black" stroke="black" points="238.1,-2308.18 234.6,-2298.18 231.1,-2308.18 238.1,-2308.18"/>
<text text-anchor="middle" x="239.6" y="-2319.8" font-family="Times,serif" font-size="14.00">1</text>
</g>
<!-- 702 -->
<g id="node22" class="node">
<title>702</title>
<ellipse fill="none" stroke="black" cx="309.6" cy="-2280" rx="28.7" ry="18"/>
<text text-anchor="middle" x="309.6" y="-2276.3" font-family="Times,serif" font-size="14.00">702</text>
</g>
<!-- 115&#45;&gt;702 -->
<g id="edge25" class="edge">
<title>115&#45;&gt;702</title>
<path fill="none" stroke="black" d="M248.01,-2350.8C259.52,-2337.75 276.3,-2318.74 289.44,-2303.85"/>
<polygon fill="black" stroke="black" points="292.31,-2305.88 296.31,-2296.06 287.06,-2301.25 292.31,-2305.88"/>
<text text-anchor="middle" x="280.6" y="-2319.8" font-family="Times,serif" font-size="14.00">1</text>
</g>
<!-- 701 -->
<g id="node23" class="node">
<title>701</title>
<ellipse fill="none" stroke="black" cx="366.6" cy="-2193" rx="28.7" ry="18"/>
<text text-anchor="middle" x="366.6" y="-2189.3" font-family="Times,serif" font-size="14.00">701</text>
</g>
<!-- 699&#45;&gt;701 -->
<g id="edge26" class="edge">
<title>699&#45;&gt;701</title>
<path fill="none" stroke="black" d="M247.61,-2263.42C257.24,-2252.65 271.13,-2238.6 285.6,-2229 302.86,-2217.54 309.58,-2219.23 328.6,-2211 330.65,-2210.11 332.75,-2209.19 334.87,-2208.26"/>
<polygon fill="black" stroke="black" points="336.41,-2211.41 344.13,-2204.16 333.57,-2205.01 336.41,-2211.41"/>
<text text-anchor="middle" x="290.6" y="-2232.8" font-family="Times,serif" font-size="14.00">1</text>
</g>
<!-- 15 -->
<g id="node24" class="node">
<title>15</title>
<ellipse fill="none" stroke="black" cx="292.6" cy="-2193" rx="27" ry="18"/>
<text text-anchor="middle" x="292.6" y="-2189.3" font-family="Times,serif" font-size="14.00">15</text>
</g>
<!-- 702&#45;&gt;15 -->
<g id="edge28" class="edge">
<title>702&#45;&gt;15</title>
<path fill="none" stroke="black" d="M306.16,-2261.8C303.81,-2250.09 300.67,-2234.34 297.99,-2220.97"/>
<polygon fill="black" stroke="black" points="301.37,-2220 295.97,-2210.89 294.5,-2221.38 301.37,-2220"/>
<text text-anchor="middle" x="306.6" y="-2232.8" font-family="Times,serif" font-size="14.00">1</text>
</g>
<!-- 701&#45;&gt;105 -->
<g id="edge27" class="edge">
<title>701&#45;&gt;105</title>
<path fill="none" stroke="black" d="M366.6,-2211.26C366.6,-2228.43 366.6,-2255.54 366.6,-2279 366.6,-2542 366.6,-2542 366.6,-2542 366.6,-2573.46 337.13,-2597.34 312.89,-2611.66"/>
<polygon fill="black" stroke="black" points="310.95,-2608.74 303.93,-2616.68 314.37,-2614.85 310.95,-2608.74"/>
<text text-anchor="middle" x="371.6" y="-2406.8" font-family="Times,serif" font-size="14.00">1</text>
</g>
<!-- 17 -->
<g id="node25" class="node">
<title>17</title>
<ellipse fill="none" stroke="black" cx="292.6" cy="-2106" rx="27" ry="18"/>
<text text-anchor="middle" x="292.6" y="-2102.3" font-family="Times,serif" font-size="14.00">17</text>
</g>
<!-- 15&#45;&gt;17 -->
<g id="edge29" class="edge">
<title>15&#45;&gt;17</title>
<path fill="none" stroke="black" d="M292.6,-2174.8C292.6,-2163.16 292.6,-2147.55 292.6,-2134.24"/>
<polygon fill="black" stroke="black" points="296.1,-2134.18 292.6,-2124.18 289.1,-2134.18 296.1,-2134.18"/>
<text text-anchor="middle" x="297.6" y="-2145.8" font-family="Times,serif" font-size="14.00">1</text>
</g>
<!-- 19 -->
<g id="node26" class="node">
<title>19</title>
<ellipse fill="none" stroke="black" cx="292.6" cy="-2019" rx="27" ry="18"/>
<text text-anchor="middle" x="292.6" y="-2015.3" font-family="Times,serif" font-size="14.00">19</text>
</g>
<!-- 17&#45;&gt;19 -->
<g id="edge30" class="edge">
<title>17&#45;&gt;19</title>
<path fill="none" stroke="black" d="M292.6,-2087.8C292.6,-2076.16 292.6,-2060.55 292.6,-2047.24"/>
<polygon fill="black" stroke="black" points="296.1,-2047.18 292.6,-2037.18 289.1,-2047.18 296.1,-2047.18"/>
<text text-anchor="middle" x="297.6" y="-2058.8" font-family="Times,serif" font-size="14.00">1</text>
</g>
<!-- 21 -->
<g id="node27" class="node">
<title>21</title>
<ellipse fill="none" stroke="black" cx="292.6" cy="-1932" rx="27" ry="18"/>
<text text-anchor="middle" x="292.6" y="-1928.3" font-family="Times,serif" font-size="14.00">21</text>
</g>
<!-- 19&#45;&gt;21 -->
<g id="edge31" class="edge">
<title>19&#45;&gt;21</title>
<path fill="none" stroke="black" d="M292.6,-2000.8C292.6,-1989.16 292.6,-1973.55 292.6,-1960.24"/>
<polygon fill="black" stroke="black" points="296.1,-1960.18 292.6,-1950.18 289.1,-1960.18 296.1,-1960.18"/>
<text text-anchor="middle" x="297.6" y="-1971.8" font-family="Times,serif" font-size="14.00">1</text>
</g>
<!-- 22 -->
<g id="node28" class="node">
<title>22</title>
<ellipse fill="none" stroke="black" cx="292.6" cy="-1845" rx="27" ry="18"/>
<text text-anchor="middle" x="292.6" y="-1841.3" font-family="Times,serif" font-size="14.00">22</text>
</g>
<!-- 21&#45;&gt;22 -->
<g id="edge32" class="edge">
<title>21&#45;&gt;22</title>
<path fill="none" stroke="black" d="M292.6,-1913.8C292.6,-1902.16 292.6,-1886.55 292.6,-1873.24"/>
<polygon fill="black" stroke="black" points="296.1,-1873.18 292.6,-1863.18 289.1,-1873.18 296.1,-1873.18"/>
<text text-anchor="middle" x="297.6" y="-1884.8" font-family="Times,serif" font-size="14.00">1</text>
</g>
<!-- 23 -->
<g id="node29" class="node">
<title>23</title>
<ellipse fill="none" stroke="black" cx="264.6" cy="-1758" rx="27" ry="18"/>
<text text-anchor="middle" x="264.6" y="-1754.3" font-family="Times,serif" font-size="14.00">23</text>
</g>
<!-- 22&#45;&gt;23 -->
<g id="edge33" class="edge">
<title>22&#45;&gt;23</title>
<path fill="none" stroke="black" d="M287.07,-1827.21C283.15,-1815.33 277.83,-1799.17 273.35,-1785.56"/>
<polygon fill="black" stroke="black" points="276.57,-1784.16 270.12,-1775.76 269.92,-1786.35 276.57,-1784.16"/>
<text text-anchor="middle" x="284.6" y="-1797.8" font-family="Times,serif" font-size="14.00">5</text>
</g>
<!-- 24 -->
<g id="node30" class="node">
<title>24</title>
<ellipse fill="none" stroke="black" cx="258.6" cy="-1671" rx="27" ry="18"/>
<text text-anchor="middle" x="258.6" y="-1667.3" font-family="Times,serif" font-size="14.00">24</text>
</g>
<!-- 23&#45;&gt;24 -->
<g id="edge34" class="edge">
<title>23&#45;&gt;24</title>
<path fill="none" stroke="black" d="M263.38,-1739.8C262.56,-1728.16 261.46,-1712.55 260.52,-1699.24"/>
<polygon fill="black" stroke="black" points="264.01,-1698.9 259.81,-1689.18 257.02,-1699.4 264.01,-1698.9"/>
<text text-anchor="middle" x="266.6" y="-1710.8" font-family="Times,serif" font-size="14.00">5</text>
</g>
<!-- 26 -->
<g id="node31" class="node">
<title>26</title>
<ellipse fill="none" stroke="black" cx="266.6" cy="-1584" rx="27" ry="18"/>
<text text-anchor="middle" x="266.6" y="-1580.3" font-family="Times,serif" font-size="14.00">26</text>
</g>
<!-- 24&#45;&gt;26 -->
<g id="edge35" class="edge">
<title>24&#45;&gt;26</title>
<path fill="none" stroke="black" d="M260.22,-1652.8C261.31,-1641.16 262.78,-1625.55 264.03,-1612.24"/>
<polygon fill="black" stroke="black" points="267.53,-1612.46 264.98,-1602.18 260.56,-1611.8 267.53,-1612.46"/>
<text text-anchor="middle" x="267.6" y="-1623.8" font-family="Times,serif" font-size="14.00">4</text>
</g>
<!-- 25 -->
<g id="node32" class="node">
<title>25</title>
<ellipse fill="none" stroke="black" cx="194.6" cy="-1584" rx="27" ry="18"/>
<text text-anchor="middle" x="194.6" y="-1580.3" font-family="Times,serif" font-size="14.00">25</text>
</g>
<!-- 24&#45;&gt;25 -->
<g id="edge36" class="edge">
<title>24&#45;&gt;25</title>
<path fill="none" stroke="black" d="M246.86,-1654.41C237.21,-1641.59 223.37,-1623.22 212.36,-1608.6"/>
<polygon fill="black" stroke="black" points="215.07,-1606.37 206.26,-1600.49 209.48,-1610.59 215.07,-1606.37"/>
<text text-anchor="middle" x="234.6" y="-1623.8" font-family="Times,serif" font-size="14.00">1</text>
</g>
<!-- 27 -->
<g id="node33" class="node">
<title>27</title>
<ellipse fill="none" stroke="black" cx="301.6" cy="-1497" rx="27" ry="18"/>
<text text-anchor="middle" x="301.6" y="-1493.3" font-family="Times,serif" font-size="14.00">27</text>
</g>
<!-- 26&#45;&gt;27 -->
<g id="edge37" class="edge">
<title>26&#45;&gt;27</title>
<path fill="none" stroke="black" d="M273.51,-1566.21C278.48,-1554.14 285.28,-1537.64 290.94,-1523.89"/>
<polygon fill="black" stroke="black" points="294.24,-1525.05 294.82,-1514.47 287.77,-1522.38 294.24,-1525.05"/>
<text text-anchor="middle" x="290.6" y="-1536.8" font-family="Times,serif" font-size="14.00">4</text>
</g>
<!-- 28 -->
<g id="node34" class="node">
<title>28</title>
<ellipse fill="none" stroke="black" cx="194.6" cy="-1497" rx="27" ry="18"/>
<text text-anchor="middle" x="194.6" y="-1493.3" font-family="Times,serif" font-size="14.00">28</text>
</g>
<!-- 25&#45;&gt;28 -->
<g id="edge39" class="edge">
<title>25&#45;&gt;28</title>
<path fill="none" stroke="black" d="M194.6,-1565.8C194.6,-1554.16 194.6,-1538.55 194.6,-1525.24"/>
<polygon fill="black" stroke="black" points="198.1,-1525.18 194.6,-1515.18 191.1,-1525.18 198.1,-1525.18"/>
<text text-anchor="middle" x="199.6" y="-1536.8" font-family="Times,serif" font-size="14.00">1</text>
</g>
<!-- 27&#45;&gt;22 -->
<g id="edge38" class="edge">
<title>27&#45;&gt;22</title>
<path fill="none" stroke="black" d="M307.93,-1514.66C313.78,-1531.6 321.6,-1558.74 321.6,-1583 321.6,-1759 321.6,-1759 321.6,-1759 321.6,-1779.98 313.58,-1802.4 305.98,-1818.94"/>
<polygon fill="black" stroke="black" points="302.83,-1817.42 301.61,-1827.94 309.13,-1820.47 302.83,-1817.42"/>
<text text-anchor="middle" x="326.6" y="-1667.3" font-family="Times,serif" font-size="14.00">4</text>
</g>
<!-- 29 -->
<g id="node35" class="node">
<title>29</title>
<ellipse fill="none" stroke="black" cx="194.6" cy="-1410" rx="27" ry="18"/>
<text text-anchor="middle" x="194.6" y="-1406.3" font-family="Times,serif" font-size="14.00">29</text>
</g>
<!-- 28&#45;&gt;29 -->
<g id="edge40" class="edge">
<title>28&#45;&gt;29</title>
<path fill="none" stroke="black" d="M194.6,-1478.8C194.6,-1467.16 194.6,-1451.55 194.6,-1438.24"/>
<polygon fill="black" stroke="black" points="198.1,-1438.18 194.6,-1428.18 191.1,-1438.18 198.1,-1438.18"/>
<text text-anchor="middle" x="199.6" y="-1449.8" font-family="Times,serif" font-size="14.00">1</text>
</g>
<!-- 30 -->
<g id="node36" class="node">
<title>30</title>
<ellipse fill="none" stroke="black" cx="194.6" cy="-1323" rx="27" ry="18"/>
<text text-anchor="middle" x="194.6" y="-1319.3" font-family="Times,serif" font-size="14.00">30</text>
</g>
<!-- 29&#45;&gt;30 -->
<g id="edge41" class="edge">
<title>29&#45;&gt;30</title>
<path fill="none" stroke="black" d="M194.6,-1391.8C194.6,-1380.16 194.6,-1364.55 194.6,-1351.24"/>
<polygon fill="black" stroke="black" points="198.1,-1351.18 194.6,-1341.18 191.1,-1351.18 198.1,-1351.18"/>
<text text-anchor="middle" x="199.6" y="-1362.8" font-family="Times,serif" font-size="14.00">1</text>
</g>
<!-- 31 -->
<g id="node37" class="node">
<title>31</title>
<ellipse fill="none" stroke="black" cx="183.6" cy="-1236" rx="27" ry="18"/>
<text text-anchor="middle" x="183.6" y="-1232.3" font-family="Times,serif" font-size="14.00">31</text>
</g>
<!-- 29&#45;&gt;31 -->
<g id="edge42" class="edge">
<title>29&#45;&gt;31</title>
<path fill="none" stroke="black" d="M180.91,-1394.45C169.77,-1381.54 154.9,-1361.58 148.6,-1341 140.14,-1313.39 153.96,-1282.02 166.65,-1261.02"/>
<polygon fill="black" stroke="black" points="169.71,-1262.73 172.14,-1252.42 163.81,-1258.97 169.71,-1262.73"/>
<text text-anchor="middle" x="153.6" y="-1319.3" font-family="Times,serif" font-size="14.00">4</text>
</g>
<!-- 30&#45;&gt;31 -->
<g id="edge43" class="edge">
<title>30&#45;&gt;31</title>
<path fill="none" stroke="black" d="M192.37,-1304.8C190.87,-1293.16 188.84,-1277.55 187.12,-1264.24"/>
<polygon fill="black" stroke="black" points="190.57,-1263.64 185.82,-1254.18 183.63,-1264.54 190.57,-1263.64"/>
<text text-anchor="middle" x="195.6" y="-1275.8" font-family="Times,serif" font-size="14.00">1</text>
</g>
<!-- 33 -->
<g id="node38" class="node">
<title>33</title>
<ellipse fill="none" stroke="black" cx="249.6" cy="-1149" rx="27" ry="18"/>
<text text-anchor="middle" x="249.6" y="-1145.3" font-family="Times,serif" font-size="14.00">33</text>
</g>
<!-- 31&#45;&gt;33 -->
<g id="edge44" class="edge">
<title>31&#45;&gt;33</title>
<path fill="none" stroke="black" d="M195.4,-1219.8C205.38,-1206.95 219.84,-1188.32 231.32,-1173.54"/>
<polygon fill="black" stroke="black" points="234.31,-1175.4 237.68,-1165.35 228.78,-1171.1 234.31,-1175.4"/>
<text text-anchor="middle" x="224.6" y="-1188.8" font-family="Times,serif" font-size="14.00">4</text>
</g>
<!-- 32 -->
<g id="node39" class="node">
<title>32</title>
<ellipse fill="none" stroke="black" cx="177.6" cy="-1149" rx="27" ry="18"/>
<text text-anchor="middle" x="177.6" y="-1145.3" font-family="Times,serif" font-size="14.00">32</text>
</g>
<!-- 31&#45;&gt;32 -->
<g id="edge45" class="edge">
<title>31&#45;&gt;32</title>
<path fill="none" stroke="black" d="M182.38,-1217.8C181.56,-1206.16 180.46,-1190.55 179.52,-1177.24"/>
<polygon fill="black" stroke="black" points="183.01,-1176.9 178.81,-1167.18 176.02,-1177.4 183.01,-1176.9"/>
<text text-anchor="middle" x="186.6" y="-1188.8" font-family="Times,serif" font-size="14.00">1</text>
</g>
<!-- 33&#45;&gt;29 -->
<g id="edge46" class="edge">
<title>33&#45;&gt;29</title>
<path fill="none" stroke="black" d="M250.08,-1167.03C250.56,-1200.93 249.32,-1278.95 230.6,-1341 226.02,-1356.18 217.94,-1371.91 210.6,-1384.41"/>
<polygon fill="black" stroke="black" points="207.41,-1382.92 205.19,-1393.28 213.39,-1386.56 207.41,-1382.92"/>
<text text-anchor="middle" x="248.6" y="-1275.8" font-family="Times,serif" font-size="14.00">4</text>
</g>
<!-- 34 -->
<g id="node40" class="node">
<title>34</title>
<ellipse fill="none" stroke="black" cx="177.6" cy="-1062" rx="27" ry="18"/>
<text text-anchor="middle" x="177.6" y="-1058.3" font-family="Times,serif" font-size="14.00">34</text>
</g>
<!-- 32&#45;&gt;34 -->
<g id="edge47" class="edge">
<title>32&#45;&gt;34</title>
<path fill="none" stroke="black" d="M177.6,-1130.8C177.6,-1119.16 177.6,-1103.55 177.6,-1090.24"/>
<polygon fill="black" stroke="black" points="181.1,-1090.18 177.6,-1080.18 174.1,-1090.18 181.1,-1090.18"/>
<text text-anchor="middle" x="182.6" y="-1101.8" font-family="Times,serif" font-size="14.00">1</text>
</g>
<!-- 703 -->
<g id="node41" class="node">
<title>703</title>
<ellipse fill="none" stroke="black" cx="177.6" cy="-975" rx="28.7" ry="18"/>
<text text-anchor="middle" x="177.6" y="-971.3" font-family="Times,serif" font-size="14.00">703</text>
</g>
<!-- 34&#45;&gt;703 -->
<g id="edge48" class="edge">
<title>34&#45;&gt;703</title>
<path fill="none" stroke="black" d="M177.6,-1043.8C177.6,-1032.16 177.6,-1016.55 177.6,-1003.24"/>
<polygon fill="black" stroke="black" points="181.1,-1003.18 177.6,-993.18 174.1,-1003.18 181.1,-1003.18"/>
<text text-anchor="middle" x="182.6" y="-1014.8" font-family="Times,serif" font-size="14.00">1</text>
</g>
<!-- 549 -->
<g id="node42" class="node">
<title>549</title>
<ellipse fill="none" stroke="black" cx="177.6" cy="-888" rx="28.7" ry="18"/>
<text text-anchor="middle" x="177.6" y="-884.3" font-family="Times,serif" font-size="14.00">549</text>
</g>
<!-- 703&#45;&gt;549 -->
<g id="edge49" class="edge">
<title>703&#45;&gt;549</title>
<path fill="none" stroke="black" d="M177.6,-956.8C177.6,-945.16 177.6,-929.55 177.6,-916.24"/>
<polygon fill="black" stroke="black" points="181.1,-916.18 177.6,-906.18 174.1,-916.18 181.1,-916.18"/>
<text text-anchor="middle" x="182.6" y="-927.8" font-family="Times,serif" font-size="14.00">1</text>
</g>
<!-- 545 -->
<g id="node43" class="node">
<title>545</title>
<ellipse fill="none" stroke="black" cx="177.6" cy="-801" rx="28.7" ry="18"/>
<text text-anchor="middle" x="177.6" y="-797.3" font-family="Times,serif" font-size="14.00">545</text>
</g>
<!-- 549&#45;&gt;545 -->
<g id="edge50" class="edge">
<title>549&#45;&gt;545</title>
<path fill="none" stroke="black" d="M177.6,-869.8C177.6,-858.16 177.6,-842.55 177.6,-829.24"/>
<polygon fill="black" stroke="black" points="181.1,-829.18 177.6,-819.18 174.1,-829.18 181.1,-829.18"/>
<text text-anchor="middle" x="182.6" y="-840.8" font-family="Times,serif" font-size="14.00">1</text>
</g>
<!-- 488 -->
<g id="node44" class="node">
<title>488</title>
<ellipse fill="none" stroke="black" cx="177.6" cy="-714" rx="28.7" ry="18"/>
<text text-anchor="middle" x="177.6" y="-710.3" font-family="Times,serif" font-size="14.00">488</text>
</g>
<!-- 545&#45;&gt;488 -->
<g id="edge51" class="edge">
<title>545&#45;&gt;488</title>
<path fill="none" stroke="black" d="M177.6,-782.8C177.6,-771.16 177.6,-755.55 177.6,-742.24"/>
<polygon fill="black" stroke="black" points="181.1,-742.18 177.6,-732.18 174.1,-742.18 181.1,-742.18"/>
<text text-anchor="middle" x="182.6" y="-753.8" font-family="Times,serif" font-size="14.00">1</text>
</g>
<!-- 489 -->
<g id="node45" class="node">
<title>489</title>
<ellipse fill="none" stroke="black" cx="177.6" cy="-627" rx="28.7" ry="18"/>
<text text-anchor="middle" x="177.6" y="-623.3" font-family="Times,serif" font-size="14.00">489</text>
</g>
<!-- 488&#45;&gt;489 -->
<g id="edge52" class="edge">
<title>488&#45;&gt;489</title>
<path fill="none" stroke="black" d="M177.6,-695.8C177.6,-684.16 177.6,-668.55 177.6,-655.24"/>
<polygon fill="black" stroke="black" points="181.1,-655.18 177.6,-645.18 174.1,-655.18 181.1,-655.18"/>
<text text-anchor="middle" x="182.6" y="-666.8" font-family="Times,serif" font-size="14.00">1</text>
</g>
<!-- 490 -->
<g id="node46" class="node">
<title>490</title>
<ellipse fill="none" stroke="black" cx="120.6" cy="-540" rx="28.7" ry="18"/>
<text text-anchor="middle" x="120.6" y="-536.3" font-family="Times,serif" font-size="14.00">490</text>
</g>
<!-- 489&#45;&gt;490 -->
<g id="edge53" class="edge">
<title>489&#45;&gt;490</title>
<path fill="none" stroke="black" d="M166.55,-610.01C162.45,-604.06 157.79,-597.24 153.6,-591 147.97,-582.63 141.87,-573.44 136.47,-565.23"/>
<polygon fill="black" stroke="black" points="139.35,-563.24 130.93,-556.81 133.5,-567.09 139.35,-563.24"/>
<text text-anchor="middle" x="158.6" y="-579.8" font-family="Times,serif" font-size="14.00">5</text>
</g>
<!-- 491 -->
<g id="node47" class="node">
<title>491</title>
<ellipse fill="none" stroke="black" cx="234.6" cy="-540" rx="28.7" ry="18"/>
<text text-anchor="middle" x="234.6" y="-536.3" font-family="Times,serif" font-size="14.00">491</text>
</g>
<!-- 489&#45;&gt;491 -->
<g id="edge54" class="edge">
<title>489&#45;&gt;491</title>
<path fill="none" stroke="black" d="M188.32,-610.01C196.76,-597.43 208.66,-579.68 218.28,-565.33"/>
<polygon fill="black" stroke="black" points="221.26,-567.17 223.92,-556.92 215.45,-563.27 221.26,-567.17"/>
<text text-anchor="middle" x="213.6" y="-579.8" font-family="Times,serif" font-size="14.00">1</text>
</g>
<!-- 492 -->
<g id="node48" class="node">
<title>492</title>
<ellipse fill="none" stroke="black" cx="120.6" cy="-453" rx="28.7" ry="18"/>
<text text-anchor="middle" x="120.6" y="-449.3" font-family="Times,serif" font-size="14.00">492</text>
</g>
<!-- 490&#45;&gt;492 -->
<g id="edge55" class="edge">
<title>490&#45;&gt;492</title>
<path fill="none" stroke="black" d="M120.6,-521.8C120.6,-510.16 120.6,-494.55 120.6,-481.24"/>
<polygon fill="black" stroke="black" points="124.1,-481.18 120.6,-471.18 117.1,-481.18 124.1,-481.18"/>
<text text-anchor="middle" x="125.6" y="-492.8" font-family="Times,serif" font-size="14.00">5</text>
</g>
<!-- 534 -->
<g id="node54" class="node">
<title>534</title>
<ellipse fill="none" stroke="black" cx="234.6" cy="-453" rx="28.7" ry="18"/>
<text text-anchor="middle" x="234.6" y="-449.3" font-family="Times,serif" font-size="14.00">534</text>
</g>
<!-- 491&#45;&gt;534 -->
<g id="edge62" class="edge">
<title>491&#45;&gt;534</title>
<path fill="none" stroke="black" d="M234.6,-521.8C234.6,-510.16 234.6,-494.55 234.6,-481.24"/>
<polygon fill="black" stroke="black" points="238.1,-481.18 234.6,-471.18 231.1,-481.18 238.1,-481.18"/>
<text text-anchor="middle" x="239.6" y="-492.8" font-family="Times,serif" font-size="14.00">1</text>
</g>
<!-- 493 -->
<g id="node49" class="node">
<title>493</title>
<ellipse fill="none" stroke="black" cx="120.6" cy="-366" rx="28.7" ry="18"/>
<text text-anchor="middle" x="120.6" y="-362.3" font-family="Times,serif" font-size="14.00">493</text>
</g>
<!-- 492&#45;&gt;493 -->
<g id="edge56" class="edge">
<title>492&#45;&gt;493</title>
<path fill="none" stroke="black" d="M120.6,-434.8C120.6,-423.16 120.6,-407.55 120.6,-394.24"/>
<polygon fill="black" stroke="black" points="124.1,-394.18 120.6,-384.18 117.1,-394.18 124.1,-394.18"/>
<text text-anchor="middle" x="125.6" y="-405.8" font-family="Times,serif" font-size="14.00">5</text>
</g>
<!-- 494 -->
<g id="node50" class="node">
<title>494</title>
<ellipse fill="none" stroke="black" cx="120.6" cy="-279" rx="28.7" ry="18"/>
<text text-anchor="middle" x="120.6" y="-275.3" font-family="Times,serif" font-size="14.00">494</text>
</g>
<!-- 493&#45;&gt;494 -->
<g id="edge57" class="edge">
<title>493&#45;&gt;494</title>
<path fill="none" stroke="black" d="M120.6,-347.8C120.6,-336.16 120.6,-320.55 120.6,-307.24"/>
<polygon fill="black" stroke="black" points="124.1,-307.18 120.6,-297.18 117.1,-307.18 124.1,-307.18"/>
<text text-anchor="middle" x="125.6" y="-318.8" font-family="Times,serif" font-size="14.00">5</text>
</g>
<!-- 496 -->
<g id="node51" class="node">
<title>496</title>
<ellipse fill="none" stroke="black" cx="120.6" cy="-192" rx="28.7" ry="18"/>
<text text-anchor="middle" x="120.6" y="-188.3" font-family="Times,serif" font-size="14.00">496</text>
</g>
<!-- 494&#45;&gt;496 -->
<g id="edge58" class="edge">
<title>494&#45;&gt;496</title>
<path fill="none" stroke="black" d="M120.6,-260.8C120.6,-249.16 120.6,-233.55 120.6,-220.24"/>
<polygon fill="black" stroke="black" points="124.1,-220.18 120.6,-210.18 117.1,-220.18 124.1,-220.18"/>
<text text-anchor="middle" x="125.6" y="-231.8" font-family="Times,serif" font-size="14.00">5</text>
</g>
<!-- 497 -->
<g id="node52" class="node">
<title>497</title>
<ellipse fill="none" stroke="black" cx="120.6" cy="-105" rx="28.7" ry="18"/>
<text text-anchor="middle" x="120.6" y="-101.3" font-family="Times,serif" font-size="14.00">497</text>
</g>
<!-- 496&#45;&gt;497 -->
<g id="edge59" class="edge">
<title>496&#45;&gt;497</title>
<path fill="none" stroke="black" d="M120.6,-173.8C120.6,-162.16 120.6,-146.55 120.6,-133.24"/>
<polygon fill="black" stroke="black" points="124.1,-133.18 120.6,-123.18 117.1,-133.18 124.1,-133.18"/>
<text text-anchor="middle" x="125.6" y="-144.8" font-family="Times,serif" font-size="14.00">5</text>
</g>
<!-- 533 -->
<g id="node53" class="node">
<title>533</title>
<ellipse fill="none" stroke="black" cx="156.6" cy="-18" rx="28.7" ry="18"/>
<text text-anchor="middle" x="156.6" y="-14.3" font-family="Times,serif" font-size="14.00">533</text>
</g>
<!-- 497&#45;&gt;533 -->
<g id="edge60" class="edge">
<title>497&#45;&gt;533</title>
<path fill="none" stroke="black" d="M127.71,-87.21C132.82,-75.14 139.81,-58.64 145.63,-44.89"/>
<polygon fill="black" stroke="black" points="148.95,-46.04 149.62,-35.47 142.5,-43.31 148.95,-46.04"/>
<text text-anchor="middle" x="146.6" y="-57.8" font-family="Times,serif" font-size="14.00">5</text>
</g>
<!-- 533&#45;&gt;489 -->
<g id="edge61" class="edge">
<title>533&#45;&gt;489</title>
<path fill="none" stroke="black" d="M163.24,-35.63C169.39,-52.56 177.6,-79.68 177.6,-104 177.6,-541 177.6,-541 177.6,-541 177.6,-560.25 177.6,-581.95 177.6,-598.6"/>
<polygon fill="black" stroke="black" points="174.1,-598.74 177.6,-608.74 181.1,-598.74 174.1,-598.74"/>
<text text-anchor="middle" x="182.6" y="-318.8" font-family="Times,serif" font-size="14.00">5</text>
</g>
<!-- 546 -->
<g id="node55" class="node">
<title>546</title>
<ellipse fill="none" stroke="black" cx="234.6" cy="-366" rx="28.7" ry="18"/>
<text text-anchor="middle" x="234.6" y="-362.3" font-family="Times,serif" font-size="14.00">546</text>
</g>
<!-- 534&#45;&gt;546 -->
<g id="edge63" class="edge">
<title>534&#45;&gt;546</title>
<path fill="none" stroke="black" d="M234.6,-434.8C234.6,-423.16 234.6,-407.55 234.6,-394.24"/>
<polygon fill="black" stroke="black" points="238.1,-394.18 234.6,-384.18 231.1,-394.18 238.1,-394.18"/>
<text text-anchor="middle" x="239.6" y="-405.8" font-family="Times,serif" font-size="14.00">1</text>
</g>
<!-- 129 -->
<g id="node56" class="node">
<title>129</title>
<ellipse fill="none" stroke="black" cx="234.6" cy="-279" rx="28.7" ry="18"/>
<text text-anchor="middle" x="234.6" y="-275.3" font-family="Times,serif" font-size="14.00">129</text>
</g>
<!-- 546&#45;&gt;129 -->
<g id="edge64" class="edge">
<title>546&#45;&gt;129</title>
<path fill="none" stroke="black" d="M234.6,-347.8C234.6,-336.16 234.6,-320.55 234.6,-307.24"/>
<polygon fill="black" stroke="black" points="238.1,-307.18 234.6,-297.18 231.1,-307.18 238.1,-307.18"/>
<text text-anchor="middle" x="239.6" y="-318.8" font-family="Times,serif" font-size="14.00">1</text>
</g>
<!-- 130 -->
<g id="node57" class="node">
<title>130</title>
<ellipse fill="none" stroke="black" cx="234.6" cy="-192" rx="28.7" ry="18"/>
<text text-anchor="middle" x="234.6" y="-188.3" font-family="Times,serif" font-size="14.00">130</text>
</g>
<!-- 129&#45;&gt;130 -->
<g id="edge65" class="edge">
<title>129&#45;&gt;130</title>
<path fill="none" stroke="black" d="M234.6,-260.8C234.6,-249.16 234.6,-233.55 234.6,-220.24"/>
<polygon fill="black" stroke="black" points="238.1,-220.18 234.6,-210.18 231.1,-220.18 238.1,-220.18"/>
<text text-anchor="middle" x="239.6" y="-231.8" font-family="Times,serif" font-size="14.00">1</text>
</g>
<!-- 131 -->
<g id="node58" class="node">
<title>131</title>
<ellipse fill="none" stroke="black" cx="234.6" cy="-105" rx="28.7" ry="18"/>
<text text-anchor="middle" x="234.6" y="-101.3" font-family="Times,serif" font-size="14.00">131</text>
</g>
<!-- 130&#45;&gt;131 -->
<g id="edge66" class="edge">
<title>130&#45;&gt;131</title>
<path fill="none" stroke="black" d="M234.6,-173.8C234.6,-162.16 234.6,-146.55 234.6,-133.24"/>
<polygon fill="black" stroke="black" points="238.1,-133.18 234.6,-123.18 231.1,-133.18 238.1,-133.18"/>
<text text-anchor="middle" x="239.6" y="-144.8" font-family="Times,serif" font-size="14.00">1</text>
</g>
<!-- 133 -->
<g id="node59" class="node">
<title>133</title>
<ellipse fill="none" stroke="black" cx="234.6" cy="-18" rx="28.7" ry="18"/>
<text text-anchor="middle" x="234.6" y="-14.3" font-family="Times,serif" font-size="14.00">133</text>
</g>
<!-- 131&#45;&gt;133 -->
<g id="edge67" class="edge">
<title>131&#45;&gt;133</title>
<path fill="none" stroke="black" d="M234.6,-86.8C234.6,-75.16 234.6,-59.55 234.6,-46.24"/>
<polygon fill="black" stroke="black" points="238.1,-46.18 234.6,-36.18 231.1,-46.18 238.1,-46.18"/>
<text text-anchor="middle" x="239.6" y="-57.8" font-family="Times,serif" font-size="14.00">1</text>
</g>
</g>
</svg>
